HIERARCHY
ROOT hips_dup
{
	OFFSET 109.916466 107.186729 -0.991964
	CHANNELS 6 Xposition Yposition Zposition Zrotation Yrotation Xrotation
	JOINT l_hip_dup
	{
		OFFSET 0.100000 0.000000 0.000000
		CHANNELS 3 Zrotation Yrotation Xrotation
		JOINT l_thigh_dup
		{
			OFFSET 12.325401 -0.000000 -0.000000
			CHANNELS 3 Zrotation Yrotation Xrotation
			JOINT l_knee_dup
			{
				OFFSET 2.775702 -52.963534 0.000001
				CHANNELS 3 Zrotation Yrotation Xrotation
				JOINT l_foot_dup
				{
					OFFSET 2.443170 -46.618434 0.000001
					CHANNELS 3 Zrotation Yrotation Xrotation
					JOINT l_toes_dup
					{
						OFFSET 0.311175 -5.937580 12.750666
						CHANNELS 3 Zrotation Yrotation Xrotation
						End l_toes_End_dup
						{
							OFFSET 0.044636 -0.851711 9.748467
						}
					}
				}
			}
		}
	}
	JOINT r_hip_dup
	{
		OFFSET 0.100000 0.000000 0.000000
		CHANNELS 3 Zrotation Yrotation Xrotation
		JOINT r_thigh_dup
		{
			OFFSET -12.325401 -0.000000 -0.000000
			CHANNELS 3 Zrotation Yrotation Xrotation
			JOINT r_knee_dup
			{
				OFFSET -2.773568 -52.922791 -0.000001
				CHANNELS 3 Zrotation Yrotation Xrotation
				JOINT r_foot_dup
				{
					OFFSET -2.436255 -46.486506 -0.000001
					CHANNELS 3 Zrotation Yrotation Xrotation
					JOINT r_toes_dup
					{
						OFFSET -0.340057 -6.488683 13.934130
						CHANNELS 3 Zrotation Yrotation Xrotation
						End r_toes_End_dup
						{
							OFFSET -0.046094 -0.879518 10.066734
						}
					}
				}
			}
		}
	}
	JOINT spine1_dup
	{
		OFFSET 0.100000 -0.000000 0.000000
		CHANNELS 3 Zrotation Yrotation Xrotation
		JOINT spine2_dup
		{
			OFFSET -0.000000 14.215645 0.000000
			CHANNELS 3 Zrotation Yrotation Xrotation
			JOINT spine3_dup
			{
				OFFSET -0.435970 23.745094 -0.905567
				CHANNELS 3 Zrotation Yrotation Xrotation
				JOINT neck_dup
				{
					OFFSET -0.218957 18.933075 -0.472811
					CHANNELS 3 Zrotation Yrotation Xrotation
					JOINT head_dup
					{
						OFFSET 0.331457 12.008331 0.226232
						CHANNELS 3 Zrotation Yrotation Xrotation
						End head_End_dup
						{
							OFFSET 0.538358 11.858373 1.269734
						}
					}
				}
				JOINT l_clavicle_dup
				{
					OFFSET -0.218957 18.933075 -0.472811
					CHANNELS 3 Zrotation Yrotation Xrotation
					JOINT l_shoulder_dup
					{
						OFFSET 15.116303 0.000000 -0.000000
						CHANNELS 3 Zrotation Yrotation Xrotation
						JOINT l_elbow_dup
						{
							OFFSET 31.792093 -0.000705 2.844168
							CHANNELS 3 Zrotation Yrotation Xrotation
							JOINT l_hand_dup
							{
								OFFSET 36.413383 0.000008 6.432686
								CHANNELS 3 Zrotation Yrotation Xrotation
								End l_hand_End_dup
								{
									OFFSET 12.171074 0.250001 2.146094
								}
							}
						}
					}
				}
				JOINT r_clavicle_dup
				{
					OFFSET -0.218957 18.933075 -0.472811
					CHANNELS 3 Zrotation Yrotation Xrotation
					JOINT r_shoulder_dup
					{
						OFFSET -14.846962 0.000000 -0.000000
						CHANNELS 3 Zrotation Yrotation Xrotation
						JOINT r_elbow_dup
						{
							OFFSET -32.849064 0.001004 2.810032
							CHANNELS 3 Zrotation Yrotation Xrotation
							JOINT r_hand_dup
							{
								OFFSET -33.618532 -0.000010 5.917088
								CHANNELS 3 Zrotation Yrotation Xrotation
								End r_hand_End_dup
								{
									OFFSET -12.660150 0.250000 2.232319
								}
							}
						}
					}
				}
			}
		}
	}
}
MOTION
Frames: 23
Frame Time: 0.041667
-278.371	101.659	3.902	-41.622	87.755	-43.882	0.000	-0.000	0.000	2.758	10.639	12.669	0.393	1.389	27.799	0.314	0.328	-28.470	0.069	-0.746	-14.328	0.000	-0.000	0.000	6.326	3.469	-27.480	-0.264	-1.136	22.386	0.103	-14.759	-0.176	-0.035	0.370	-7.100	0.000	0.000	0.000	0.034	-3.450	8.136	-2.230	-1.319	8.914	6.577	3.558	-3.913	-2.220	3.372	-5.979	4.028	-3.731	-0.270	-64.029	-15.309	11.025	-1.890	-35.907	-7.519	-7.224	3.553	0.841	5.234	3.451	0.307	72.841	-15.931	15.764	2.138	23.734	-10.428	12.488	-5.837	0.913
-273.967	101.610	4.437	-48.442	87.443	-50.896	0.000	-0.000	0.000	2.121	6.854	13.274	0.499	1.560	31.634	0.226	4.005	-24.904	0.165	-1.087	-21.092	0.000	-0.000	0.000	7.034	3.535	-27.465	-0.358	-1.325	26.407	0.071	-12.234	2.225	-0.029	0.329	-6.300	0.000	0.000	0.000	0.880	-3.847	8.427	-2.083	-1.492	8.913	6.779	3.727	-3.844	-3.161	3.480	-6.331	4.290	-4.200	-0.322	-65.262	-13.936	10.185	-1.786	-34.300	-7.308	-6.614	3.150	0.817	5.232	3.510	0.312	72.307	-14.566	15.575	1.747	23.492	-8.526	11.655	-4.562	1.116
-260.629	102.850	5.956	-45.453	85.899	-49.358	0.000	-0.000	0.000	4.515	5.716	3.119	1.570	2.539	59.620	-0.004	2.468	-0.953	0.085	-0.817	-15.719	0.000	-0.000	0.000	9.500	4.482	-21.951	-0.565	-1.655	33.849	0.073	-14.103	-5.654	-0.007	0.127	-2.428	0.000	0.000	0.000	3.199	-3.590	9.216	-1.109	-1.319	8.834	5.053	3.872	-3.033	-2.912	3.707	-4.867	3.306	-4.132	-0.244	-69.062	-8.549	12.431	-2.059	-29.189	-9.142	-7.573	6.871	0.436	4.370	4.757	0.356	70.272	-9.454	16.006	2.575	22.873	-12.730	7.396	-4.975	0.648
-252.044	104.371	6.665	-30.423	85.462	-36.101	0.000	-0.000	0.000	3.764	4.847	-4.880	2.280	2.814	74.210	-0.014	7.858	3.656	0.053	-0.669	-12.825	0.000	-0.000	0.000	9.567	4.431	-14.498	-0.533	-1.610	32.798	0.024	-12.912	-9.658	-0.005	0.097	-1.857	0.000	0.000	0.000	3.073	-2.245	10.121	-0.626	-0.664	8.456	4.364	3.683	-0.227	-1.966	3.640	-5.777	2.391	-3.539	-0.152	-70.485	-4.617	17.422	-0.433	-25.977	-1.997	-12.287	8.249	0.410	3.417	5.353	0.313	68.829	-4.952	18.139	3.059	22.195	-15.312	6.967	-5.549	0.539
-240.326	106.092	7.294	-10.262	83.784	-17.665	0.000	-0.000	0.000	2.259	5.932	-16.688	2.475	2.855	78.017	-0.060	12.128	-7.139	0.000	-0.211	-4.034	0.000	-0.000	0.000	9.180	5.960	-3.854	-0.421	-1.436	28.847	-0.018	-12.793	-13.148	-0.006	0.117	-2.231	0.000	0.000	0.000	2.846	0.715	11.547	-0.766	0.834	7.516	2.822	2.843	-0.741	-1.003	2.827	-3.615	2.120	-2.032	-0.079	-72.512	3.340	21.814	0.001	-27.644	0.003	-13.241	9.352	0.179	2.104	4.727	0.170	66.689	2.251	20.228	0.680	21.734	-3.370	9.682	-2.044	1.357
-229.211	105.971	7.446	-2.279	82.171	-8.744	0.000	-0.000	0.000	0.822	5.629	-25.152	1.551	2.529	59.217	-0.004	8.399	-10.487	0.009	-0.357	-6.809	0.000	-0.000	0.000	8.756	7.434	2.494	-0.385	-1.375	27.501	-0.069	-13.454	-17.078	-0.030	0.332	-6.360	0.000	0.000	0.000	2.520	2.953	10.760	-0.235	1.849	7.008	0.508	2.128	-1.283	-0.171	2.163	-4.611	0.646	-1.430	-0.017	-73.524	11.333	22.516	-0.765	-27.838	-3.443	-14.177	7.308	0.716	1.001	5.630	0.096	64.277	6.569	15.265	2.083	28.856	-9.510	8.202	0.192	1.469
-221.943	104.657	7.476	-2.706	81.110	-7.352	0.000	-0.000	0.000	-0.211	7.494	-27.715	0.703	1.832	38.140	0.007	9.051	-12.457	0.007	-0.330	-6.293	0.000	-0.000	0.000	8.869	8.478	4.718	-0.407	-1.413	28.335	-0.133	-13.907	-20.822	-0.050	0.453	-8.707	0.000	0.000	0.000	2.117	4.925	9.517	-1.237	2.842	7.295	2.516	1.790	-2.673	-0.814	1.771	-4.276	0.874	-2.315	-0.037	-72.388	14.692	23.152	-0.586	-26.798	-2.673	-15.273	7.778	0.644	3.363	4.609	0.265	62.528	9.635	10.845	3.479	34.504	-14.701	7.571	-4.013	0.793
-213.755	103.310	7.290	-3.277	80.512	-7.498	0.000	-0.000	0.000	-1.681	9.348	-30.951	0.387	1.377	27.541	0.113	5.321	-18.950	0.024	-0.494	-9.435	0.000	-0.000	0.000	8.881	8.787	9.955	-0.366	-1.340	26.729	-0.180	-14.062	-23.109	-0.070	0.552	-10.618	0.000	0.000	0.000	1.699	6.512	9.472	-2.417	3.714	7.708	3.898	1.364	-4.380	-0.266	1.327	-4.556	2.414	-2.704	-0.118	-72.317	16.274	23.680	0.134	-24.946	0.624	-16.123	8.543	0.457	3.819	3.284	0.212	63.292	11.284	8.154	4.531	37.963	-18.158	6.319	-3.200	0.752
-200.732	102.282	6.681	0.543	79.985	-3.325	0.000	-0.000	0.000	-4.576	11.281	-30.885	0.432	1.455	29.259	0.027	2.822	-10.480	0.005	-0.302	-5.770	0.000	-0.000	0.000	7.506	9.084	17.706	-0.287	-1.185	23.420	-0.077	-13.158	-17.315	-0.270	1.149	-22.654	0.000	0.000	0.000	-0.223	8.422	9.196	-3.343	4.665	7.695	3.885	0.044	-4.195	1.064	0.073	-4.530	1.707	-2.904	-0.089	-70.772	15.597	20.382	0.910	-20.163	4.487	-18.477	10.061	0.013	5.004	5.213	0.447	64.825	6.975	2.877	4.310	39.519	-16.691	6.212	-1.327	0.944
-186.783	103.087	5.805	4.445	80.313	-0.010	0.000	-0.000	0.000	-5.605	12.113	-27.403	0.654	1.773	36.677	0.005	3.544	-7.220	0.001	0.028	0.536	0.000	-0.000	0.000	4.876	7.296	15.707	-0.684	-1.810	37.579	0.069	-11.988	0.946	-0.485	1.539	-31.157	0.000	0.000	0.000	-1.834	9.059	9.012	-3.558	4.973	8.010	1.408	-0.148	-3.650	2.499	-0.047	-3.076	1.612	-2.962	-0.086	-71.973	11.544	10.407	1.951	-15.625	10.088	-15.994	7.748	0.685	2.930	6.576	0.331	68.900	0.802	9.249	4.342	31.957	-19.341	4.022	-2.471	0.529
-177.811	104.069	5.324	4.032	81.269	-1.138	0.000	-0.000	0.000	-5.507	11.000	-22.570	0.744	1.880	39.339	0.049	3.687	-13.260	0.003	0.075	1.426	0.000	-0.000	0.000	3.324	5.382	7.974	-1.361	-2.415	54.987	-0.005	-11.231	13.194	-0.157	0.865	-16.820	0.000	0.000	0.000	-1.949	7.985	8.767	-3.829	4.453	8.029	1.288	1.549	-0.751	1.133	1.573	-1.568	1.954	-2.951	-0.104	-72.236	6.965	8.479	0.792	-14.727	4.103	-14.141	10.161	-0.016	2.161	5.987	0.222	70.795	-2.690	19.063	1.905	25.300	-9.106	10.324	-3.285	1.221
-165.324	105.744	4.900	-3.783	82.823	-10.153	0.000	-0.000	0.000	-4.335	11.106	-12.966	0.684	1.810	37.585	0.125	2.469	-18.902	0.005	0.107	2.041	0.000	-0.000	0.000	3.617	2.888	-5.074	-2.131	-2.773	71.253	0.212	-21.195	4.624	-0.081	0.598	-11.533	0.000	0.000	0.000	-0.942	4.914	8.638	-4.644	3.049	8.678	4.133	4.391	1.988	-1.802	4.479	0.315	2.771	-2.594	-0.130	-69.196	-1.204	16.802	0.733	-19.600	3.632	-13.373	11.037	-0.226	3.357	4.270	0.244	71.831	-6.200	26.981	-0.788	20.219	3.970	18.707	-0.254	3.302
-157.840	106.214	4.782	-14.458	83.860	-20.598	0.000	-0.000	0.000	-3.055	11.442	-7.962	0.627	1.739	35.852	0.182	1.268	-22.182	0.005	0.101	1.923	0.000	-0.000	0.000	4.459	2.744	-13.351	-2.063	-2.752	69.893	0.175	-18.998	0.427	-0.043	0.419	-8.033	0.000	0.000	0.000	0.056	2.017	8.017	-3.951	1.527	8.383	5.084	6.125	4.379	-3.021	6.429	2.430	2.169	-2.851	-0.112	-67.811	-5.552	17.698	0.210	-23.684	0.996	-10.197	9.298	0.147	3.857	3.481	0.228	71.434	-10.102	26.029	-0.820	21.448	4.077	16.365	-2.280	2.266
-150.714	105.999	4.861	-22.971	84.752	-28.089	0.000	-0.000	0.000	-2.247	11.040	-4.262	0.586	1.685	34.547	0.235	0.535	-24.850	0.005	0.096	1.835	0.000	-0.000	0.000	4.908	3.175	-20.097	-1.549	-2.528	59.171	0.091	-14.263	-2.557	-0.038	0.386	-7.405	0.000	0.000	0.000	0.331	-0.647	7.254	-3.700	0.153	8.329	6.515	7.430	4.278	-4.200	7.952	5.226	3.333	-2.031	-0.124	-66.603	-10.233	18.830	0.092	-27.856	0.414	-8.546	6.194	0.596	3.224	2.824	0.153	72.837	-12.575	23.565	2.792	24.064	-13.638	12.308	-7.080	0.624
-139.490	104.717	5.647	-43.817	85.693	-48.373	0.000	-0.000	0.000	-0.031	10.247	2.532	0.528	1.604	32.645	0.324	-0.771	-28.858	-0.000	-0.012	-0.220	0.000	-0.000	0.000	5.127	7.101	-22.375	-0.417	-1.429	28.695	0.172	-19.697	-4.919	-0.059	0.499	-9.594	0.000	0.000	0.000	1.110	-4.419	7.597	-3.243	-1.733	8.518	7.432	8.561	4.535	-5.465	9.212	5.699	3.452	-2.480	-0.156	-63.878	-14.742	15.009	-1.212	-33.733	-4.997	-9.273	4.685	0.897	4.179	3.234	0.229	72.018	-14.251	20.435	2.394	24.120	-11.649	10.568	-3.921	1.131
-127.037	102.859	7.034	-61.140	85.984	-65.608	0.000	-0.000	0.000	2.661	9.793	12.143	0.381	1.368	27.340	0.350	-2.426	-29.939	0.009	-0.354	-6.766	0.000	-0.000	0.000	7.524	4.310	-25.540	-0.223	-1.040	20.399	0.085	-19.690	-13.754	-0.129	0.778	-15.082	0.000	0.000	0.000	1.688	-6.179	8.415	-2.612	-2.592	8.985	7.689	7.920	3.181	-5.734	8.338	3.549	3.061	-3.278	-0.181	-62.214	-16.898	13.133	-2.126	-37.023	-8.296	-9.414	3.955	1.033	5.473	3.582	0.333	71.155	-13.916	18.447	1.830	22.270	-9.058	9.456	-1.269	1.454
-118.221	102.286	8.101	-76.613	85.730	-81.384	0.000	-0.000	0.000	4.134	7.685	16.974	0.404	1.408	28.221	0.264	-0.964	-26.168	0.101	-0.877	-16.897	0.000	-0.000	0.000	9.759	2.044	-23.948	-0.253	-1.109	21.832	0.114	-15.498	-0.083	-0.029	0.331	-6.342	0.000	0.000	0.000	2.843	-6.795	8.628	-2.659	-2.843	8.927	7.781	7.071	3.766	-6.908	7.593	3.770	2.908	-5.099	-0.264	-63.212	-14.825	10.758	-1.117	-36.336	-4.396	-8.944	2.736	1.174	6.232	4.170	0.444	71.450	-13.028	15.612	1.691	20.425	-8.532	10.489	-4.346	1.042
-105.112	102.921	9.497	-84.499	85.129	-90.755	0.000	-0.000	0.000	6.412	5.482	8.640	1.311	2.382	53.838	-0.003	-1.719	-2.755	0.230	-1.258	-24.573	0.000	-0.000	0.000	11.617	-1.088	-20.512	-0.478	-1.528	30.915	0.088	-14.285	-3.242	-0.006	0.119	-2.265	0.000	0.000	0.000	4.900	-6.121	9.398	-2.335	-2.415	8.570	5.981	5.620	6.270	-6.705	6.152	2.461	4.174	-6.315	-0.467	-69.455	-10.402	11.604	-1.320	-30.124	-5.762	-9.562	4.471	0.962	5.141	4.858	0.428	71.115	-10.909	16.459	1.246	18.504	-6.391	8.725	-4.755	0.801
-96.609	104.080	10.394	-71.583	85.493	-79.059	0.000	-0.000	0.000	6.922	6.077	0.534	2.091	2.761	70.445	0.026	1.975	6.026	0.040	-0.596	-11.417	0.000	-0.000	0.000	11.672	-1.949	-15.310	-0.544	-1.626	33.168	0.040	-12.811	-7.800	-0.008	0.142	-2.720	0.000	0.000	0.000	4.924	-4.042	9.990	-1.992	-1.377	8.390	4.547	4.566	6.394	-4.105	5.037	3.515	3.906	-4.019	-0.281	-72.663	-7.885	15.325	0.205	-25.666	0.949	-13.658	8.432	0.412	4.080	4.373	0.305	69.734	-8.437	20.004	2.252	20.475	-11.396	7.074	-5.676	0.532
-88.739	105.195	11.120	-50.694	85.642	-58.409	0.000	-0.000	0.000	6.147	8.106	-8.133	2.568	2.870	79.812	-0.075	12.498	-2.592	0.012	-0.386	-7.371	0.000	-0.000	0.000	11.148	-1.582	-10.173	-0.527	-1.602	32.604	0.009	-12.455	-10.553	-0.014	0.211	-4.025	0.000	0.000	0.000	4.336	-1.080	9.268	-1.889	0.041	8.637	4.260	3.208	5.907	-2.655	3.639	4.264	3.357	-3.063	-0.185	-73.040	-3.778	19.629	1.310	-24.587	6.157	-14.931	8.172	0.522	2.974	4.512	0.229	69.361	-5.451	19.247	2.405	22.650	-11.903	7.192	-6.476	0.438
-78.172	106.220	11.549	-17.868	84.446	-24.954	0.000	-0.000	0.000	3.439	9.489	-19.157	2.293	2.817	74.457	-0.033	10.269	-8.635	0.001	-0.220	-4.197	0.000	-0.000	0.000	9.798	1.509	-3.230	-0.446	-1.478	29.773	-0.013	-13.412	-13.321	-0.020	0.263	-5.039	0.000	0.000	0.000	2.533	3.589	8.220	-3.209	2.341	8.318	6.005	1.723	4.670	-1.386	2.149	4.558	3.827	-2.724	-0.189	-71.775	5.144	22.044	-0.466	-26.422	-2.136	-7.726	7.206	0.399	4.256	4.028	0.292	68.072	-0.344	14.599	1.928	24.899	-9.262	8.079	-4.749	0.741
-68.280	105.741	11.442	-9.003	82.094	-14.433	0.000	-0.000	0.000	1.289	9.863	-25.351	1.192	2.296	51.029	-0.013	9.775	-10.858	0.008	-0.338	-6.456	0.000	-0.000	0.000	9.425	4.679	1.537	-0.427	-1.447	29.085	-0.067	-14.176	-17.489	-0.036	0.371	-7.119	0.000	0.000	0.000	1.837	6.779	7.282	-3.614	3.881	7.747	5.849	1.211	1.781	-2.045	1.464	4.925	4.116	-2.774	-0.207	-71.440	12.080	22.143	-1.234	-23.978	-5.841	-12.018	7.726	0.513	4.670	2.958	0.233	65.892	5.787	11.508	2.515	27.689	-11.707	7.385	-3.789	0.803
-61.448	104.712	11.117	-9.759	81.043	-14.264	0.000	-0.000	0.000	0.261	10.872	-27.389	0.527	1.601	32.595	-0.019	10.124	-10.579	0.012	-0.382	-7.287	0.000	-0.000	0.000	9.645	6.038	5.080	-0.409	-1.416	28.405	-0.087	-15.654	-19.737	-0.066	0.535	-10.294	0.000	0.000	0.000	1.980	7.544	7.073	-2.954	4.207	7.667	3.991	1.402	-0.032	-2.082	1.527	4.987	3.358	-2.414	-0.147	-71.834	15.069	22.023	0.104	-21.897	0.503	-16.267	9.995	0.031	4.237	2.961	0.212	63.817	8.974	10.714	2.551	29.486	-11.581	6.550	-2.213	0.893
